<svg 
 xmlns="http://www.w3.org/2000/svg"
 xmlns:xlink="http://www.w3.org/1999/xlink"
 width="24px" height="22.5px">
<path fill-rule="evenodd"  stroke="rgb(125, 125, 125)" stroke-width="1px" stroke-linecap="butt" stroke-linejoin="miter" fill="rgb(203, 203, 203)"
 d="M23.000,1.007 L12.541,1.003 L12.521,1.003 C12.348,0.999 12.177,0.999 12.008,1.003 L11.349,1.042 C1.063,1.042 1.003,1.163 1.003,11.993 C1.003,12.229 1.000,12.463 1.010,12.696 L1.010,21.000 L12.000,21.000 L12.000,15.000 C12.000,12.042 12.039,12.000 15.000,12.000 L21.000,12.000 L23.000,12.000 L23.000,1.007 Z"/>
<path fill-rule="evenodd"  fill="rgb(125, 125, 125)"
 d="M22.000,-0.000 C22.552,-0.000 23.000,0.448 23.000,1.000 L23.000,12.000 C23.000,12.552 22.552,13.000 22.000,13.000 C21.448,13.000 21.000,12.552 21.000,12.000 L21.000,1.000 C21.000,0.448 21.448,-0.000 22.000,-0.000 Z"/>
<path fill-rule="evenodd"  fill="rgb(125, 125, 125)"
 d="M1.000,20.000 L12.000,20.000 C12.552,20.000 13.000,20.448 13.000,21.000 C13.000,21.552 12.552,22.000 12.000,22.000 L1.000,22.000 C0.448,22.000 -0.000,21.552 -0.000,21.000 C-0.000,20.448 0.448,20.000 1.000,20.000 Z"/>
</svg>