<svg xmlns="http://www.w3.org/2000/svg" width="24.94" height="24" viewBox="0 0 24.94 24">
  <defs>
    <style>
      .cls-1 {
        fill: none;
        stroke: #7d7d7d;
        stroke-width: 1px;
        fill-rule: evenodd;
      }
    </style>
  </defs>
  <path id="Hotel_five_stars_sign_free_icon" data-name="Hotel five stars sign free icon" class="cls-1" d="M3790.35,1379.73a1.316,1.316,0,0,0,.53-1.29l-1.03-5.99a1.331,1.331,0,0,1,.38-1.17l4.34-4.25a1.315,1.315,0,0,0-.73-2.25l-6-.87a1.3,1.3,0,0,1-.98-0.72l-2.69-5.46a1.3,1.3,0,0,0-1.17-.74,1.334,1.334,0,0,0-1.19.74l-2.68,5.46a1.324,1.324,0,0,1-.99.72l-6,.88a1.314,1.314,0,0,0-.73,2.24l4.34,4.25a1.278,1.278,0,0,1,.38,1.17l-1.02,5.99a1.31,1.31,0,0,0,.52,1.29,1.3,1.3,0,0,0,1.39.1l5.36-2.83a1.315,1.315,0,0,1,1.22,0l5.37,2.83A1.28,1.28,0,0,0,3790.35,1379.73Z" transform="translate(-3770.53 -1356.5)"/>
</svg>
