<svg 
 xmlns="http://www.w3.org/2000/svg"
 xmlns:xlink="http://www.w3.org/1999/xlink"
 width="25px" height="24px">
<path fill-rule="evenodd"  stroke="rgb(125, 125, 125)" stroke-width="1px" stroke-linecap="butt" stroke-linejoin="miter" fill="rgb(203, 203, 203)"
 d="M24.001,2.007 L13.542,2.003 L13.520,2.003 C13.349,1.999 13.178,1.999 13.009,2.003 L12.349,2.042 C2.965,2.042 2.003,4.370 2.003,12.993 C2.003,13.229 2.001,13.463 2.010,13.696 L2.010,22.000 L12.000,22.000 L12.000,16.000 C12.000,14.267 11.845,12.000 13.000,12.000 L22.000,12.000 L24.001,12.000 L24.001,2.007 Z"/>
<path fill-rule="evenodd"  stroke="rgb(125, 125, 125)" stroke-width="1px" stroke-linecap="butt" stroke-linejoin="miter" fill="none"
 d="M24.001,5.008 L13.542,5.003 L13.520,5.003 C13.349,4.999 13.178,4.999 13.009,5.003 L12.000,5.000 C5.666,5.000 5.003,6.289 5.003,14.993 C5.003,15.229 5.000,15.463 5.011,15.696 L5.011,23.000 "/>
<path fill-rule="evenodd"  stroke="rgb(255, 255, 255)" stroke-width="1px" stroke-linecap="butt" stroke-linejoin="miter" fill="none"
 d="M24.001,4.007 L13.542,4.003 L13.520,4.003 C13.349,3.999 13.178,3.999 13.009,4.003 L12.000,4.000 C4.591,4.000 4.003,4.438 4.003,14.993 C4.003,15.229 3.999,15.463 4.011,15.696 L4.011,23.000 "/>
<path fill-rule="evenodd"  fill="rgb(125, 125, 125)"
 d="M23.000,0.000 C23.552,0.000 24.001,0.448 24.001,1.000 L24.001,13.000 C24.001,13.552 23.552,14.000 23.000,14.000 C22.449,14.000 22.000,13.552 22.000,13.000 L22.000,1.000 C22.000,0.448 22.449,0.000 23.000,0.000 Z"/>
<path fill-rule="evenodd"  fill="rgb(125, 125, 125)"
 d="M1.001,21.000 L13.000,21.000 C13.551,21.000 13.998,21.448 13.998,22.000 C13.998,22.552 13.551,23.000 13.000,23.000 L1.001,23.000 C0.449,23.000 0.000,22.552 0.000,22.000 C0.000,21.448 0.449,21.000 1.001,21.000 Z"/>
</svg>