<svg 
 xmlns="http://www.w3.org/2000/svg"
 xmlns:xlink="http://www.w3.org/1999/xlink"
 width="30.5px" height="25.5px">
<path fill-rule="evenodd"  fill="rgb(125, 125, 125)"
 d="M9.500,23.000 L20.500,23.000 C21.052,23.000 21.500,23.448 21.500,24.000 C21.500,24.552 21.052,25.000 20.500,25.000 L9.500,25.000 C8.948,25.000 8.500,24.552 8.500,24.000 C8.500,23.448 8.948,23.000 9.500,23.000 Z"/>
<path fill-rule="evenodd"  fill="rgb(203, 203, 203)"
 d="M0.500,1.000 L29.500,1.000 L29.500,12.000 L0.500,12.000 L0.500,1.000 Z"/>
<path fill-rule="evenodd"  stroke="rgb(125, 125, 125)" stroke-width="1px" stroke-linecap="butt" stroke-linejoin="miter" fill="rgb(203, 203, 203)"
 d="M29.500,12.000 L0.500,12.000 M0.500,1.000 L29.500,1.000 "/>
<path fill-rule="evenodd"  fill="rgb(203, 203, 203)"
 d="M9.500,11.000 L20.500,11.000 L20.500,23.000 L9.500,23.000 L9.500,11.000 Z"/>
<path fill-rule="evenodd"  stroke="rgb(125, 125, 125)" stroke-width="1px" stroke-linecap="butt" stroke-linejoin="miter" fill="rgb(203, 203, 203)"
 d="M20.500,11.000 L20.500,23.000 M9.500,23.000 L9.500,11.000 "/>
<path fill-rule="evenodd"  fill="rgb(125, 125, 125)"
 d="M28.500,-0.000 C29.052,-0.000 29.500,0.448 29.500,1.000 L29.500,12.000 C29.500,12.552 29.052,13.000 28.500,13.000 C27.948,13.000 27.500,12.552 27.500,12.000 L27.500,1.000 C27.500,0.448 27.948,-0.000 28.500,-0.000 Z"/>
<path fill-rule="evenodd"  fill="rgb(125, 125, 125)"
 d="M1.500,-0.000 C2.052,-0.000 2.500,0.448 2.500,1.000 L2.500,12.000 C2.500,12.552 2.052,13.000 1.500,13.000 C0.948,13.000 0.500,12.552 0.500,12.000 L0.500,1.000 C0.500,0.448 0.948,-0.000 1.500,-0.000 Z"/>
</svg>