<svg 
 xmlns="http://www.w3.org/2000/svg"
 xmlns:xlink="http://www.w3.org/1999/xlink"
 width="37.5px" height="9.5px">
<path fill-rule="evenodd"  fill="rgb(203, 203, 203)"
 d="M4.500,0.500 L32.500,0.500 C34.709,0.500 36.500,2.291 36.500,4.500 C36.500,6.709 34.709,8.500 32.500,8.500 L4.500,8.500 C2.291,8.500 0.500,6.709 0.500,4.500 C0.500,2.291 2.291,0.500 4.500,0.500 Z"/>
<path fill-rule="evenodd"  stroke="rgb(125, 125, 125)" stroke-width="1px" stroke-linecap="butt" stroke-linejoin="miter" fill="none"
 d="M4.500,0.500 L32.500,0.500 C34.709,0.500 36.500,2.291 36.500,4.500 C36.500,6.709 34.709,8.500 32.500,8.500 L4.500,8.500 C2.291,8.500 0.500,6.709 0.500,4.500 C0.500,2.291 2.291,0.500 4.500,0.500 Z"/>
</svg>