<svg 
 xmlns="http://www.w3.org/2000/svg"
 xmlns:xlink="http://www.w3.org/1999/xlink"
 width="37.5px" height="8.5px">
<path fill-rule="evenodd"  stroke="rgb(125, 125, 125)" stroke-width="1px" stroke-linecap="butt" stroke-linejoin="miter" fill="none"
 d="M33.557,7.500 L15.500,7.500 L20.500,0.500 L33.557,0.501 C34.337,0.501 35.086,0.831 35.637,1.418 C36.191,2.006 36.500,2.803 36.500,3.634 L36.500,4.368 C36.500,6.098 35.182,7.500 33.557,7.500 ZM0.500,4.368 L0.500,3.634 C0.500,1.904 1.819,0.501 3.444,0.501 L5.946,0.501 L2.559,7.356 C1.366,6.956 0.500,5.770 0.500,4.368 ZM3.444,7.500 C3.360,7.500 3.275,7.494 3.192,7.487 L7.564,7.500 L3.444,7.500 Z"/>
<path fill-rule="evenodd"  stroke="rgb(125, 125, 125)" stroke-width="1px" stroke-linecap="butt" stroke-linejoin="miter" fill="rgb(203, 203, 203)"
 d="M19.500,7.500 L14.687,7.500 L15.054,6.760 L15.054,6.759 L17.779,1.242 L18.146,0.501 L22.500,0.500 L19.500,7.500 ZM9.628,6.759 L12.353,1.242 L12.719,0.501 L17.500,0.500 L14.357,6.759 L9.628,6.759 ZM8.931,6.759 L5.195,6.759 C5.209,6.760 5.222,6.760 5.236,6.760 L8.930,6.760 L8.565,7.500 L4.444,7.500 C4.360,7.500 4.275,7.494 4.191,7.487 L4.581,6.698 L4.585,6.689 L7.277,1.242 L7.642,0.501 L12.022,0.501 L11.657,1.242 L8.931,6.759 ZM3.985,6.495 L3.978,6.510 L3.977,6.510 L3.559,7.356 C2.366,6.956 1.500,5.770 1.500,4.368 L1.500,3.634 C1.500,1.904 2.818,0.501 4.444,0.501 L6.945,0.501 L6.579,1.242 L3.985,6.495 ZM14.357,6.760 L13.990,7.500 L9.261,7.500 L9.628,6.760 L14.357,6.760 Z"/>
</svg>